HIERARCHY
ROOT Hips
{
  OFFSET 3.13124 94.3669 -3.18751
  CHANNELS  6 Xposition Yposition Zposition Zrotation Xrotation Yrotation
  JOINT LeftUpLeg
  {
    OFFSET 8.64259 1.95398 -2.38835
    CHANNELS 3 Zrotation Xrotation Yrotation
    JOINT LeftLeg
    {
      OFFSET 43.7702 0 0
      CHANNELS 3 Zrotation Xrotation Yrotation
      JOINT LeftFoot
      {
        OFFSET 40.6238 0 0
        CHANNELS 3 Zrotation Xrotation Yrotation
        JOINT LeftToeBase
        {
          OFFSET 12.7242 0 0
          CHANNELS 3 Zrotation Xrotation Yrotation
          End Site
          {
            OFFSET 0 0 0
          }
        }
      }
    }
  }
  JOINT RightUpLeg
  {
    OFFSET -8.2249 1.95398 -2.59336
    CHANNELS 3 Zrotation Xrotation Yrotation
    JOINT RightLeg
    {
      OFFSET 43.5653 0 0
      CHANNELS 3 Zrotation Xrotation Yrotation
      JOINT RightFoot
      {
        OFFSET 40.6238 0 0
        CHANNELS 3 Zrotation Xrotation Yrotation
        JOINT RightToeBase
        {
          OFFSET 12.7242 0 0
          CHANNELS 3 Zrotation Xrotation Yrotation
          End Site
          {
            OFFSET 0 0 0
          }
        }
      }
    }
  }
  JOINT Spine
  {
    OFFSET 0.165834 0.87714 6.61349
    CHANNELS 3 Zrotation Xrotation Yrotation
    JOINT Spine1
    {
      OFFSET 7.38962 1.71661e-005 0
      CHANNELS 3 Zrotation Xrotation Yrotation
      JOINT Spine2
      {
        OFFSET 11.9445 1.14441e-005 0
        CHANNELS 3 Zrotation Xrotation Yrotation
        JOINT Spine3
        {
          OFFSET 14.7254 4.19617e-005 0
          CHANNELS 3 Zrotation Xrotation Yrotation
          JOINT Spine4
          {
            OFFSET 10.9679 0 0
            CHANNELS 3 Zrotation Xrotation Yrotation
            JOINT RightShoulder
            {
              OFFSET 2.46616 -1.6653 3.69651
              CHANNELS 3 Zrotation Xrotation Yrotation
              JOINT RightArm
              {
                OFFSET 13.0012 0 0
                CHANNELS 3 Zrotation Xrotation Yrotation
                JOINT RightForeArm
                {
                  OFFSET 28.7848 1.52588e-005 0
                  CHANNELS 3 Zrotation Xrotation Yrotation
                  JOINT RightHand
                  {
                    OFFSET 26.5688 1.52588e-005 0
                    CHANNELS 3 Zrotation Xrotation Yrotation
                    End Site
                    {
                      OFFSET 0 0 0
                    }
                  }
                }
              }
            }
            JOINT LeftShoulder
            {
              OFFSET 2.38034 -1.29275 -3.75231
              CHANNELS 3 Zrotation Xrotation Yrotation
              JOINT LeftArm
              {
                OFFSET 16.3182 6.10352e-005 0
                CHANNELS 3 Zrotation Xrotation Yrotation
                JOINT LeftForeArm
                {
                  OFFSET 27.0901 0 0
                  CHANNELS 3 Zrotation Xrotation Yrotation
                  JOINT LeftHand
                  {
                    OFFSET 24.5451 1.52588e-005 0
                    CHANNELS 3 Zrotation Xrotation Yrotation
                    End Site
                    {
                      OFFSET 0 0 0
                    }
                  }
                }
              }
            }
            JOINT Neck
            {
              OFFSET 5.0226 -0.0266342 0
              CHANNELS 3 Zrotation Xrotation Yrotation
              JOINT Head
              {
                OFFSET 6.69363 2.86102e-005 0
                CHANNELS 3 Zrotation Xrotation Yrotation
                End Site
                {
                  OFFSET 0 0 0
                }
              }
            }
          }
        }
      }
    }
  }
}
MOTION
Frames:	18
Frame Time:	0.0333333
20.3415 91.8543 93.3208 -77.4144 -74.9459 -78.4714 -170.427 25.3771 97.6457 -33.7743 -9.80559 -2.12739 52.4096 -5.13342 -4.14878 28.7808 1.21446e-006 -5.13938e-006 175.818 17.9729 65.003 -28.3014 -11.7651 -0.779085 39.6133 0.31325 1.03888 28.7808 1.57929e-005 2.54473e-005 -0.224635 7.41247 -90.6613 12.0363 -0.767725 -2.01357 0.364032 -0.855586 -1.97785 -22.1587 -0.127235 -2.15114 -2.14611 -0.12724 -2.15116 106.9 -43.5708 -74.0161 11.1104 34.7248 36.7955 34.187 -11.9794 -107.146 8.86697 1.23022 9.56602 -103.368 -43.4215 56.2728 -24.0966 -8.04953 -24.8784 48.9855 18.2665 -75.3928 -46.2632 -22.9274 48.7147 0.519587 28.6923 37.3964 -1.7524 23.2132 0.610137 
25.6031 95.2685 95.3776 -81.5803 -73.0162 -82.1189 -171.402 18.6099 94.7819 -24.2781 -12.3108 -1.94067 44.5443 -3.20728 -3.31657 28.7808 1.21446e-006 -5.13938e-006 174.815 17.3329 67.0403 -25.6922 -18.4464 -1.15043 32.3114 0.87769 2.05291 28.7808 1.57929e-005 2.54473e-005 0.35537 7.27863 -91.3042 12.312 0.0942072 -2.56387 0.638491 -0.0186415 -2.56559 -21.8781 0.859872 -2.4165 -1.86548 0.85987 -2.41651 105.496 -38.5745 -76.0093 9.85995 39.8523 32.2548 19.9003 -10.2646 -114.185 14.844 3.19302 18.2102 -95.955 -41.6844 67.1013 -24.3306 -6.55352 -19.3007 28.9461 4.95446 -80.5918 -41.5432 -22.4484 53.7801 -3.16378 27.2103 38.701 -2.805 22.8029 -1.04686 
30.3645 98.8003 96.6948 -82.0217 -72.0013 -81.879 -172.54 12.5627 93.2018 -10.7388 -14.4681 -1.77348 28.7045 -4.39064 -6.15958 28.7808 1.21446e-006 -5.13938e-006 175.635 17.0274 73.4673 -25.9198 -23.1982 -1.43812 31.6778 5.24303 6.61823 28.7808 1.57929e-005 2.54473e-005 0.964495 7.12549 -92.2647 12.5936 0.846491 -3.08172 0.919206 0.709462 -3.11473 -21.5944 1.73758 -2.69729 -1.58172 1.73757 -2.69731 103.682 -33.1496 -79.0789 9.93411 41.5243 30.1911 9.85759 -6.69881 -117.399 25.4912 5.13844 16.9606 -92.3709 -40.7898 72.6053 -24.4967 -5.30635 -13.2444 9.07619 -0.31334 -89.5573 -32.6668 -19.665 60.7311 -7.44615 24.7945 42.0056 -2.61444 21.5969 -3.30479 
34.7309 101.476 97.3877 -79.3772 -72.9806 -78.2378 -172.784 12.5836 93.7316 -6.85704 -14.5982 -2.57969 12.545 -9.04124 -15.3421 28.7808 1.21446e-006 -5.13938e-006 175.184 13.2885 80.5976 -17.7073 -25.1028 -1.43988 29.1298 8.25698 10.4144 28.7808 1.57929e-005 2.54473e-005 1.49171 7.1238 -93.3073 12.5468 1.29329 -3.05172 0.872826 1.15765 -3.10865 -21.6468 2.15136 -2.49829 -1.63419 2.15134 -2.49833 103.145 -32.718 -80.1176 10.8178 42.4631 27.038 2.83527 -3.62735 -119.494 36.0991 5.97629 12.8554 -90.6211 -41.9044 75.8165 -23.9621 -5.23087 -7.23494 -8.38176 0.297496 -101.695 -24.6559 -16.0393 66.1973 -4.96366 24.7968 44.3914 -4.46965 20.6268 -8.43041 
38.7119 102.996 97.9651 -74.1915 -76.6964 -74.8767 -172.746 13.3645 91.6265 -6.23412 1.09112 -2.54483 10.415 -13.053 -21.9159 28.7808 1.21446e-006 -5.13938e-006 176.785 14.4489 84.3572 -19.5366 -16.1531 -0.91777 32.2827 8.65351 10.2128 28.7808 1.57929e-005 2.54473e-005 1.40782 7.26001 -93.0425 12.2739 1.15306 -1.78581 0.602187 1.07325 -1.83537 -21.9308 1.6371 -1.35769 -1.91813 1.63709 -1.35769 101.788 -36.5811 -82.738 10.6006 45.2946 25.1169 0.650867 -2.76816 -121.69 47.6651 7.40418 10.4757 -88.1963 -42.2687 79.8855 -24.2078 -3.01289 -0.0489263 -15.9453 5.30921 -112.654 -19.1675 -12.267 67.3249 3.8943 26.5319 38.8111 -8.99293 20.1874 -10.0612 
42.8128 103.768 98.2639 -59.3916 -83.3642 -63.5727 -174.628 13.501 88.692 -8.43695 -2.0656 -2.50792 8.04117 -12.8486 -22.443 28.7808 1.21446e-006 -5.13938e-006 177.864 15.0651 85.7954 -19.5487 6.24188 0.386508 36.5102 11.0799 11.5758 28.7808 1.57929e-005 2.54473e-005 0.995371 7.39197 -92.222 12.0553 0.74626 -0.599763 0.384279 0.720716 -0.62399 -22.152 0.881166 -0.333847 -2.13938 0.881161 -0.333865 101.873 -36.4518 -82.6219 6.6298 54.5607 -2.08049 169.637 -1.19433 -85.1548 -40.9476 -36.2021 75.198 -87.8988 -44.1277 80.7273 -24.9359 1.15872 5.20387 -18.5775 9.74908 -120.503 -13.9134 -8.43324 67.2204 12.75 26.8033 34.7213 -14.2262 19.0679 -12.4785 
47.9024 103.176 99.9716 141.587 -84.2675 130.093 -176.698 9.07585 82.9954 -16.5741 -3.61067 -1.04269 10.9758 -10.1678 -17.4513 28.7808 1.21446e-006 -5.13938e-006 175.631 -1.53834 81.874 -4.15399 7.71825 0.436506 52.2567 4.95044 3.87478 28.7808 1.57929e-005 2.54473e-005 -0.198843 7.33706 -90.1854 12.197 -0.613426 -0.596097 0.526059 -0.64045 -0.57016 -22.0086 -0.396773 -0.759757 -1.99594 -0.396778 -0.759762 98.0512 -15.1967 -92.9449 12.0143 46.2112 35.0119 69.0107 -44.0905 -104.777 18.8238 24.0028 96.5376 -98.3007 -51.7624 67.0346 -25.8039 0.0131588 18.2404 -21.2291 13.5383 -124.343 -10.3367 -5.54251 64.2998 -21.0429 9.70931 50.8544 12.5741 10.0956 -17.4341 
51.5893 103.555 100.439 124.64 -79.3315 114.157 -175.411 7.45131 87.097 -15.881 -4.46193 -0.165617 16.944 -6.71854 -10.9567 28.7808 1.21446e-006 -5.13938e-006 177.65 1.4974 85.3093 -11.5299 14.4695 0.880113 40.7297 9.93941 9.35712 28.7808 1.57929e-005 2.54473e-005 -0.219021 7.68086 -91.1454 11.516 -0.808641 -0.798685 -0.154885 -0.843023 -0.762319 -22.689 -0.527607 -1.00477 -2.67641 -0.527618 -1.00477 100.148 -9.66139 -88.3964 20.9232 28.1462 42.0734 54.294 -51.111 -118.477 27.8394 21.519 69.2554 -96.0938 -53.8968 70.8677 -27.2423 8.21995 21.9744 -22.3006 19.5902 -132.038 -4.84474 -1.6634 60.8031 -12.5702 12.111 52.628 4.89417 9.19307 -23.4658 
55.4417 100.756 101.107 117.677 -74.9196 106.801 -173.187 11.1528 91.9058 -27.231 -30.5311 -6.9522 24.5462 -13.3493 -17.1415 28.7808 1.21446e-006 -5.13938e-006 -179.943 -1.94699 88.7948 -5.9055 30.0527 2.05178 40.7279 0.330073 0.9859 28.7808 1.57929e-005 2.54473e-005 -0.279485 7.81805 -90.6109 11.2431 -0.852555 -1.04453 -0.427924 -0.897702 -1.006 -22.9606 -0.499273 -1.25243 -2.94792 -0.499287 -1.25245 101.159 -9.01735 -85.3169 26.6666 12.4519 45.3477 53.0905 -56.9452 -121.288 27.2599 16.881 56.5349 -95.5153 -55.964 72.2567 -29.1323 17.5236 27.0871 -19.1483 22.0581 -139.773 -0.415372 1.00935 56.4481 -7.54726 12.5821 52.1593 -0.238023 8.0072 -26.5306 
59.3243 96.867 102.056 112.746 -69.7269 101.036 -171.662 16.3543 94.3779 -35.087 -23.7979 -6.09693 35.0481 -12.6151 -13.2421 28.7808 1.21446e-006 -5.13938e-006 -178.981 -3.2375 89.4825 -5.49009 32.8513 2.29861 46.77 -4.33337 -2.945 28.7808 1.57929e-005 2.54473e-005 -0.354305 7.73551 -89.4857 11.3799 -0.868606 -1.15959 -0.291288 -0.919031 -1.12024 -22.8233 -0.479638 -1.367 -2.81064 -0.479649 -1.367 102.181 -16.8318 -82.1083 34.4004 -10.24 49.5416 9.03567 -24.474 -153.554 30.3233 10.2934 31.9985 -96.4253 -57.939 71.5347 -40.46 54.9024 26.3887 -3.75094 3.60482 -140.214 44.8252 20.1981 39.1099 -5.50192 10.4848 49.7862 -3.07708 5.9648 -28.1196 
63.0751 94.6056 102.733 105.644 -63.6339 96.0855 -170.488 20.868 97.5031 -34.9146 -10.6697 -2.84264 38.2435 -9.01975 -9.24762 28.7808 1.21446e-006 -5.13938e-006 -179.944 8.46813 88.9303 -34.2355 35.8305 2.32146 64.9798 -1.16478 -0.645937 28.7808 1.57929e-005 2.54473e-005 -0.340632 7.4318 -90.3453 11.9984 -0.956495 -1.29992 0.327177 -1.01283 -1.25623 -22.2037 -0.522044 -1.5283 -2.19107 -0.522051 -1.52831 101.815 -29.6557 -82.7618 35.2725 -13.9682 47.2047 30.8013 -47.3702 -139.41 -1.22523 -0.607747 31.7383 -98.3884 -59.3647 69.2991 -47.305 44.9215 35.8554 1.42255 -1.87786 -133.254 39.3317 11.3444 24.2511 -3.527 8.28944 44.417 -6.87471 4.24214 -25.9604 
67.5715 91.5832 102.916 107.952 -58.7444 99.1652 -170.132 22.0948 98.6044 -38.4228 -0.413967 -0.257758 40.9765 -11.6072 -11.0207 28.7808 1.21446e-006 -5.13938e-006 -179.947 7.52799 88.5374 -41.5303 40.1172 2.61644 71.5005 -7.02362 -3.54168 28.7808 1.57929e-005 2.54473e-005 -0.311146 7.7478 -90.2558 11.3569 -1.07819 -1.87427 -0.314843 -1.15963 -1.82502 -22.8404 -0.459262 -2.11156 -2.82773 -0.459266 -2.11155 102.982 -39.4705 -80.4906 29.2106 1.27835 21.9532 82.7585 -49.4349 -95.275 -13.1934 -8.60082 63.3724 -97.4084 -62.1518 71.4897 -43.7379 22.0579 36.5276 5.75679 -3.67669 -118.813 10.3047 -0.0958133 -4.42603 7.70676 10.1286 43.4014 -18.5316 5.04415 -27.2263 
71.626 90.8945 102.054 103.689 -61.2356 103.807 -169.025 23.3922 106.658 -36.081 -8.83524 -1.48556 42.5675 -17.6238 -15.6389 28.7808 1.21446e-006 -5.13938e-006 178.909 3.76955 89.633 -34.3105 -14.9702 -1.02892 74.6801 -16.5264 -7.6491 28.7808 1.57929e-005 2.54473e-005 0.214828 8.33195 -89.6497 10.216 0.658188 1.54307 -1.45554 0.723883 1.51268 -23.9852 0.196435 1.66906 -3.97259 0.196421 1.66904 49.2998 -76.2124 -141.681 28.911 3.56091 7.27028 29.0216 -21.2024 -121.629 -12.9872 -7.3243 55.1052 -67.8538 -42.4123 113.603 -46.6257 33.1237 22.25 10.3755 -4.39881 -110.681 9.52974 -0.140605 -4.86684 28.9913 -12.271 -43.7905 -24.7562 -2.78496 43.7624 
77.7034 91.0174 102.73 113.655 -56.8444 115.3 -169.747 12.0363 110.17 -25.6838 -22.9976 2.65115 34.9806 -31.4816 -31.2412 28.7808 1.21446e-006 -5.13938e-006 178.838 -9.56747 89.7894 -24.6295 -15.7972 -0.955364 74.8103 -12.6739 -5.83372 28.7808 1.57929e-005 2.54473e-005 0.277643 8.47396 -91.8739 9.96355 -0.0016633 -2.38013 -1.70848 -0.0833621 -2.37879 -24.2284 0.736022 -2.26363 -4.21572 0.736013 -2.26365 82.1026 -66.4304 -107.53 24.465 -11.1784 -19.0413 23.8639 -21.9124 -127.749 -46.9023 -38.0409 72.6711 -85.0798 -55.5864 86.913 -36.6897 27.4386 6.23323 -0.764232 -0.629619 -111.014 33.6335 3.12174 5.30862 19.8766 -0.835394 -1.77092 -16.3758 -1.66291 13.2434 
81.1275 89.7333 100.833 100.791 -60.7457 97.1597 -175.202 18.2922 101.987 -29.8914 -35.1366 1.7841 17.5742 -37.0824 -48.6708 28.7808 1.21446e-006 -5.13938e-006 179.326 12.4656 77.8925 -51.0133 -20.5131 -1.57962 67.5846 -8.58129 -4.53345 28.7808 1.57929e-005 2.54473e-005 -0.610427 8.32722 -87.293 10.2254 -0.190959 3.97972 -1.45144 -0.00803748 3.9842 -23.9467 -1.37819 3.73939 -3.93404 -1.3782 3.73938 5.69835 -70.1097 169.823 17.1434 -10.7438 -60.6644 -5.75244 0.738216 -121.125 -20.651 -40.5076 124.272 -65.8845 -15.3503 126.471 8.42475 51.542 -65.6017 0.532148 -1.10288 -129.918 60.9565 13.0028 16.7474 21.4145 -16.4536 -70.4467 -23.5873 -2.24643 59.3402 
84.2781 88.8674 98.5315 99.4432 -63.6044 92.4737 -175.689 20.5863 97.3853 -36.6689 -32.2539 -1.24705 26.8648 -37.6633 -42.322 28.7808 1.21446e-006 -5.13938e-006 -173.465 32.0563 70.909 -74.9162 -23.1538 -2.30689 39.7983 -5.47638 -4.0937 28.7808 1.57929e-005 2.54473e-005 -0.130541 7.81035 -88.4046 11.2513 0.201053 0.237617 -0.419682 0.207229 0.22939 -22.9548 0.132121 0.281353 -2.94213 0.132118 0.28135 50.4105 -70.397 -143.637 14.2962 -11.0347 -82.3829 -69.1048 11.554 -97.8051 1.6958 8.42213 145.86 -92.0286 -41.0339 72.961 -18.3065 -7.55973 -30.3561 -10.4486 9.88695 -136.669 40.8679 22.6827 46.6946 14.4402 -4.12451 -26.831 -6.39075 1.89429 34.7597 
86.2966 89.1692 96.2561 102.262 -65.2256 92.9308 -175.538 19.5699 94.513 -37.8828 -30.9071 -3.57152 30.3941 -35.2509 -37.5611 28.7808 1.21446e-006 -5.13938e-006 -166.454 44.5138 65.7992 -89.9497 -16.1272 -2.29535 40.4874 -10.0839 -8.11086 28.7808 1.57929e-005 2.54473e-005 -0.133875 8.4108 -88.0511 10.0509 0.496984 0.642548 -1.62013 0.524785 0.620078 -24.1543 0.280793 0.762488 -4.14169 0.280801 0.762481 47.4793 -65.0886 -149.937 11.5568 -5.1295 -100.196 -157.647 8.92912 -74.3764 103.038 68.5303 51.2566 -93.6912 -32.16 67.2958 -33.2381 -37.3225 -62.4083 -20.7341 20.1596 -135.029 25.6005 30.2332 90.444 11.5273 -3.32184 -26.925 1.8104 4.41248 34.8438 
87.7695 90.5806 94.5335 100.016 -64.2095 91.1637 -175.249 19.6725 93.5216 -34.483 -28.6986 -4.29649 30.0595 -30.7717 -33.2596 28.7808 1.21446e-006 -5.13938e-006 -160.55 57.637 62.9483 -100.115 -12.7175 -2.34571 40.6519 -11.9684 -9.73151 28.7808 1.57929e-005 2.54473e-005 -0.311167 8.90224 -88.5492 9.05477 0.295496 0.474147 -2.61624 0.316096 0.460228 -25.1508 0.140678 0.537287 -5.13812 0.140664 0.537265 51.6815 -60.645 -147.611 11.6523 -1.44229 -104.478 -177.681 2.49477 -66.9603 128.583 56.3019 23.4418 -93.2442 -29.5476 66.9999 -47.29 -43.4686 -85.9186 -23.7798 24.4136 -135.683 17.553 31.418 110.72 13.4718 -3.01859 -19.2367 6.11931 4.1723 28.5316 
